{
  "accessors": [
    {
      "bufferView": 2,
      "componentType": 5126,
      "count": 65533,
      "max": [
        5.143462181091309,
        1.100281000137329,
        9.671740531921387
      ],
      "min": [
        -8.59044075012207,
        -1.861106038093567,
        1.3679879903793335
      ],
      "type": "VEC3"
    },
    {
      "bufferView": 2,
      "byteOffset": 786396,
      "componentType": 5126,
      "count": 65533,
      "max": [
        0.999824583530426,
        0.9999942779541016,
        0.9999667406082153
      ],
      "min": [
        -1.0,
        -0.9999469518661499,
        -0.9999141693115234
      ],
      "type": "VEC3"
    },
    {
      "bufferView": 1,
      "componentType": 5126,
      "count": 65533,
      "max": [
        0.9905999898910522,
        0.9879000186920166
      ],
      "min": [
        0.0,
        0.0
      ],
      "type": "VEC2"
    },
    {
      "bufferView": 0,
      "componentType": 5125,
      "count": 65583,
      "type": "SCALAR"
    },
    {
      "bufferView": 2,
      "byteOffset": 1572792,
      "componentType": 5126,
      "count": 41803,
      "max": [
        9.487500190734863,
        1.0432740449905396,
        9.695781707763672
      ],
      "min": [
        -8.573057174682617,
        -1.8334640264511108,
        1.36735999584198
      ],
      "type": "VEC3"
    },
    {
      "bufferView": 2,
      "byteOffset": 2074428,
      "componentType": 5126,
      "count": 41803,
      "max": [
        0.9997678399085999,
        0.9999656677246094,
        0.9999645948410034
      ],
      "min": [
        -0.9998970031738281,
        -0.9999806880950928,
        -0.9997672438621521
      ],
      "type": "VEC3"
    },
    {
      "bufferView": 1,
      "byteOffset": 524264,
      "componentType": 5126,
      "count": 41803,
      "max": [
        0.9908000230789185,
        8.705900192260742
      ],
      "min": [
        -4.344099998474121,
        0.012299999594688416
      ],
      "type": "VEC2"
    },
    {
      "bufferView": 0,
      "byteOffset": 262332,
      "componentType": 5125,
      "count": 41805,
      "type": "SCALAR"
    }
  ],
  "asset": {
    "extras": {
      "author": "marvelvsdcvscapcomvssega (https://sketchfab.com/marvelvsdcvscapcomvssega)",
      "license": "CC-BY-4.0 (http://creativecommons.org/licenses/by/4.0/)",
      "source": "https://sketchfab.com/3d-models/greyhound-turned-into-stone-47b6b40c66204621ae627cc89f8eb11a",
      "title": "Greyhound Turned Into Stone"
    },
    "generator": "Sketchfab-12.63.0",
    "version": "2.0"
  },
  "bufferViews": [
    {
      "buffer": 0,
      "byteLength": 429552,
      "name": "floatBufferViews",
      "target": 34963
    },
    {
      "buffer": 0,
      "byteLength": 858688,
      "byteOffset": 429552,
      "byteStride": 8,
      "name": "floatBufferViews",
      "target": 34962
    },
    {
      "buffer": 0,
      "byteLength": 2576064,
      "byteOffset": 1288240,
      "byteStride": 12,
      "name": "floatBufferViews",
      "target": 34962
    }
  ],
  "buffers": [
    {
      "byteLength": 3864304,
      "uri": "scene.bin"
    }
  ],
  "materials": [
    {
      "doubleSided": true,
      "name": "wire_134006006",
      "pbrMetallicRoughness": {
        "baseColorFactor": [
          0.5,
          0.5,
          0.5,
          1.0
        ],
        "metallicFactor": 0.0,
        "roughnessFactor": 0.6
      }
    }
  ],
  "meshes": [
    {
      "name": "Object_0",
      "primitives": [
        {
          "attributes": {
            "NORMAL": 1,
            "POSITION": 0,
            "TEXCOORD_0": 2
          },
          "indices": 3,
          "material": 0,
          "mode": 4
        }
      ]
    },
    {
      "name": "Object_1",
      "primitives": [
        {
          "attributes": {
            "NORMAL": 5,
            "POSITION": 4,
            "TEXCOORD_0": 6
          },
          "indices": 7,
          "material": 0,
          "mode": 4
        }
      ]
    }
  ],
  "nodes": [
    {
      "children": [
        1
      ],
      "matrix": [
        1.0,
        0.0,
        0.0,
        0.0,
        0.0,
        2.220446049250313e-16,
        -1.0,
        0.0,
        0.0,
        1.0,
        2.220446049250313e-16,
        0.0,
        0.0,
        0.0,
        0.0,
        1.0
      ],
      "name": "Sketchfab_model"
    },
    {
      "children": [
        2,
        3
      ],
      "name": "Greyhound Turned Into Stone.obj.cleaner.gles"
    },
    {
      "mesh": 0,
      "name": "Object_2"
    },
    {
      "mesh": 1,
      "name": "Object_3"
    }
  ],
  "scene": 0,
  "scenes": [
    {
      "name": "Sketchfab_Scene",
      "nodes": [
        0
      ]
    }
  ]
}
