<svg xmlns="http://www.w3.org/2000/svg" xmlns:xlink="http://www.w3.org/1999/xlink" xmlns:svgjs="http://svgjs.dev/svgjs" version="1.1" width="1000" height="623" viewBox="0 0 1000 623"><g transform="matrix(1,0,0,1,-0.6060606060606233,0.2522267206477409)"><svg xmlns="http://www.w3.org/2000/svg" xmlns:xlink="http://www.w3.org/1999/xlink" viewBox="0 0 396 247" data-background-color="#ffffff" preserveAspectRatio="xMidYMid meet" height="623" width="1000"><g id="tight-bounds" transform="matrix(1,0,0,1,0.2400000000000091,-0.09999999999999432)"><svg viewBox="0 0 395.52 247.2" height="247.2" width="395.52"><g><svg/></g><g><svg viewBox="0 0 395.52 247.2" height="247.2" width="395.52"><g transform="matrix(1,0,0,1,132.89805447470818,37.08)"><svg viewBox="0 0 129.72389105058363 173.04" height="173.04" width="129.72389105058363"><g><svg viewBox="0 0 129.72389105058363 173.04" height="173.04" width="129.72389105058363"><g><svg viewBox="0 0 129.72389105058363 173.04" height="173.04" width="129.72389105058363"><g><svg viewBox="0 0 129.72389105058363 173.04" height="173.04" width="129.72389105058363"><g id="textblocktransform"><svg viewBox="0 0 129.72389105058363 173.04" height="173.04" width="129.72389105058363" id="textblock"><g><svg viewBox="0 0 129.72389105058363 173.04" height="173.04" width="129.72389105058363"><g transform="matrix(1,0,0,1,0,0)"><svg width="129.72389105058363" viewBox="0.9500000476837158 -37.04999923706055 29.899999618530273 39.54999923706055" height="173.04" data-palette-color="#e8772e"><path d="M3.45-34.55L9.95-34.55 9.95 0 3.45 0 3.45-34.55ZM20.75-34.55L27.55-34.55 16.95-18.9 28.35 0 21 0 10.15-18.45 20.75-34.55Z" opacity="1" transform="matrix(1,0,0,1,0,0)" fill="#e8772e" class="undefined-text-0" data-fill-palette-color="primary" id="text-0"/></svg></g></svg></g></svg></g></svg></g></svg></g></svg></g></svg></g><g mask="url(&quot;#c080f08f-3f37-43f0-a6a8-d6dac07a4c16&quot;)"><g transform="matrix(3.243385981533637, 0, 0, 3.243385981533637, 91.70128830187856, 1.0000000000000142)"><svg xmlns="http://www.w3.org/2000/svg" xmlns:xlink="http://www.w3.org/1999/xlink" version="1.1" x="0" y="0" viewBox="17.299999237060547 12.199999809265137 65.39999389648438 75.60000610351562" style="enable-background:new 0 0 100 100;" xml:space="preserve" height="75.60000610351562" width="65.39999389648438" class="icon-none" data-fill-palette-color="accent" id="none"><path d="M50 12.2L17.3 31.1v37.8L50 87.8l32.7-18.9V31.1L50 12.2zM32.1 37.4L50 16l17 21.4H32.1zM67.3 39.4L50 70.4l-18.2-31H67.3zM48.1 71l-27.7-4.5 9.8-25.9L48.1 71zM68.9 40.7l10.7 25.9-27.7 4.5L68.9 40.7zM69.2 37.1L52.6 16l27 15.6L69.2 37.1zM29.8 37.1l-9.4-5.5 26.8-15.5L29.8 37.1zM28.8 38.8l-9.5 25V33.3L28.8 38.8zM49 73.2v11.7L20.9 68.7 49 73.2zM51 73.2l28.1-4.5L51 84.9V73.2zM70.3 38.8l10.5-5.6v30.9L70.3 38.8z" fill="#e8772e" data-fill-palette-color="accent"/></svg></g></g><mask id="c080f08f-3f37-43f0-a6a8-d6dac07a4c16"><rect width="640" height="400" fill="white"/><g transform="matrix(1,0,0,1,132.89805447470818,37.08)"><svg viewBox="0 0 129.72389105058363 173.04" height="173.04" width="129.72389105058363"><g><svg viewBox="0 0 129.72389105058363 173.04" height="173.04" width="129.72389105058363"><g><svg viewBox="0 0 129.72389105058363 173.04" height="173.04" width="129.72389105058363"><g><svg viewBox="0 0 129.72389105058363 173.04" height="173.04" width="129.72389105058363"><g id="SvgjsG1245"><svg viewBox="0 0 129.72389105058363 173.04" height="173.04" width="129.72389105058363" id="SvgjsSvg1244"><g><svg viewBox="0 0 129.72389105058363 173.04" height="173.04" width="129.72389105058363"><g transform="matrix(1,0,0,1,0,0)"><svg width="129.72389105058363" viewBox="0.9500000476837158 -37.04999923706055 29.899999618530273 39.54999923706055" height="173.04" data-palette-color="#e8772e"><path d="M3.45-34.55L9.95-34.55 9.95 0 3.45 0 3.45-34.55ZM20.75-34.55L27.55-34.55 16.95-18.9 28.35 0 21 0 10.15-18.45 20.75-34.55Z" opacity="1" transform="matrix(1,0,0,1,0,0)" fill="#e8772e" class="undefined-text-0" data-fill-palette-color="primary" id="SvgjsPath1243" stroke-width="4" stroke="black" stroke-linejoin="round"/></svg></g></svg></g></svg></g></svg></g></svg></g></svg></g></svg></g></mask></svg></g><defs/></svg><rect width="395.52" height="247.2" fill="none" stroke="none" visibility="hidden"/></g></svg></g></svg>